<?xml version="1.0" encoding="UTF-8"?>
<!DOCTYPE svg PUBLIC "-//W3C//DTD SVG 1.1//EN" "http://www.w3.org/Graphics/SVG/1.1/DTD/svg11.dtd">
<svg xmlns="http://www.w3.org/2000/svg" xmlns:xlink="http://www.w3.org/1999/xlink" version="1.1" width="412px" height="307px" viewBox="-0.5 -0.5 412 307"><defs><clipPath id="mx-clip-290-25-71-35-0"><rect x="290" y="25" width="71" height="35"/></clipPath><clipPath id="mx-clip-361-25-49-35-0"><rect x="361" y="25" width="49" height="35"/></clipPath><clipPath id="mx-clip-290-95-71-35-0"><rect x="290" y="95" width="71" height="35"/></clipPath><clipPath id="mx-clip-361-95-49-35-0"><rect x="361" y="95" width="49" height="35"/></clipPath><clipPath id="mx-clip-290-235-71-35-0"><rect x="290" y="235" width="71" height="35"/></clipPath><clipPath id="mx-clip-361-235-49-35-0"><rect x="361" y="235" width="49" height="35"/></clipPath><clipPath id="mx-clip-290-270-71-35-0"><rect x="290" y="270" width="71" height="35"/></clipPath><clipPath id="mx-clip-361-270-49-35-0"><rect x="361" y="270" width="49" height="35"/></clipPath><clipPath id="mx-clip-260-25-30-35-0"><rect x="260" y="25" width="30" height="35"/></clipPath><clipPath id="mx-clip-260-60-30-35-0"><rect x="260" y="60" width="30" height="35"/></clipPath><clipPath id="mx-clip-260-95-30-35-0"><rect x="260" y="95" width="30" height="35"/></clipPath><clipPath id="mx-clip-260-130-30-35-0"><rect x="260" y="130" width="30" height="35"/></clipPath><clipPath id="mx-clip-260-165-30-35-0"><rect x="260" y="165" width="30" height="35"/></clipPath><clipPath id="mx-clip-260-200-30-35-0"><rect x="260" y="200" width="30" height="35"/></clipPath><clipPath id="mx-clip-260-235-30-35-0"><rect x="260" y="235" width="30" height="35"/></clipPath><clipPath id="mx-clip-260-270-30-35-0"><rect x="260" y="270" width="30" height="35"/></clipPath><clipPath id="mx-clip-290-0-71-20-0"><rect x="290" y="0" width="71" height="20"/></clipPath><clipPath id="mx-clip-361-0-49-20-0"><rect x="361" y="0" width="49" height="20"/></clipPath></defs><g><rect x="290" y="25" width="120" height="280" fill="rgb(255, 255, 255)" stroke="none" pointer-events="none"/><path d="M 290 25 L 410 25 L 410 305 L 290 305 L 290 25" fill="none" stroke="rgb(0, 0, 0)" stroke-width="2" stroke-linecap="square" stroke-miterlimit="10" pointer-events="none"/><path d="M 290 60 L 361 60 L 410 60" fill="none" stroke="rgb(0, 0, 0)" stroke-width="2" stroke-miterlimit="10" pointer-events="none"/><path d="M 290 95 L 361 95 L 410 95" fill="none" stroke="rgb(0, 0, 0)" stroke-width="2" stroke-miterlimit="10" pointer-events="none"/><path d="M 290 130 L 361 130 L 410 130" fill="none" stroke="rgb(0, 0, 0)" stroke-width="2" stroke-miterlimit="10" pointer-events="none"/><path d="M 290 165 L 361 165 L 410 165" fill="none" stroke="rgb(0, 0, 0)" stroke-width="2" stroke-miterlimit="10" pointer-events="none"/><path d="M 290 200 L 361 200 L 410 200" fill="none" stroke="rgb(0, 0, 0)" stroke-width="2" stroke-miterlimit="10" pointer-events="none"/><path d="M 290 235 L 361 235 L 410 235" fill="none" stroke="rgb(0, 0, 0)" stroke-width="2" stroke-miterlimit="10" pointer-events="none"/><path d="M 290 270 L 361 270 L 410 270" fill="none" stroke="rgb(0, 0, 0)" stroke-width="2" stroke-miterlimit="10" pointer-events="none"/><path d="M 361 25 L 361 60 L 361 95 L 361 130 L 361 165 L 361 200 L 361 235 L 361 270 L 361 305" fill="none" stroke="rgb(0, 0, 0)" stroke-width="2" stroke-miterlimit="10" pointer-events="none"/><path d="M 290 25 M 410 25 M 410 60 M 290 60" fill="none" stroke="rgb(0, 0, 0)" stroke-linecap="square" stroke-miterlimit="10" pointer-events="none"/><rect x="290" y="25" width="71" height="35" fill="#ffe6cc" stroke="none" pointer-events="none"/><path d="M 290 25 M 361 25 M 361 60 M 290 60" fill="none" stroke="#d79b00" stroke-linecap="square" stroke-miterlimit="10" pointer-events="none"/><g fill="rgb(0, 0, 0)" font-family="Helvetica" pointer-events="none" clip-path="url(#mx-clip-290-25-71-35-0)" text-anchor="middle" font-size="16px"><text x="325" y="49">Dave</text></g><rect x="361" y="25" width="49" height="35" fill="#ffe6cc" stroke="none" pointer-events="none"/><path d="M 361 25 M 410 25 M 410 60 M 361 60" fill="none" stroke="#d79b00" stroke-linecap="square" stroke-miterlimit="10" pointer-events="none"/><g fill="rgb(0, 0, 0)" font-family="Helvetica" pointer-events="none" clip-path="url(#mx-clip-361-25-49-35-0)" text-anchor="middle" font-size="16px"><text x="385" y="49">103</text></g><path d="M 290 60 M 410 60 M 410 95 M 290 95" fill="none" stroke="rgb(0, 0, 0)" stroke-linecap="square" stroke-miterlimit="10" pointer-events="none"/><rect x="290" y="60" width="71" height="35" fill="#ffffff" stroke="none" pointer-events="none"/><path d="M 290 60 M 361 60 M 361 95 M 290 95" fill="none" stroke="rgb(0, 0, 0)" stroke-linecap="square" stroke-miterlimit="10" pointer-events="none"/><rect x="361" y="60" width="49" height="35" fill="#ffffff" stroke="none" pointer-events="none"/><path d="M 361 60 M 410 60 M 410 95 M 361 95" fill="none" stroke="rgb(0, 0, 0)" stroke-linecap="square" stroke-miterlimit="10" pointer-events="none"/><path d="M 290 95 M 410 95 M 410 130 M 290 130" fill="none" stroke="rgb(0, 0, 0)" stroke-linecap="square" stroke-miterlimit="10" pointer-events="none"/><rect x="290" y="95" width="71" height="35" fill="#ffe6cc" stroke="none" pointer-events="none"/><path d="M 290 95 M 361 95 M 361 130 M 290 130" fill="none" stroke="#d79b00" stroke-linecap="square" stroke-miterlimit="10" pointer-events="none"/><g fill="rgb(0, 0, 0)" font-family="Helvetica" pointer-events="none" clip-path="url(#mx-clip-290-95-71-35-0)" text-anchor="middle" font-size="16px"><text x="325" y="119">Evin</text></g><rect x="361" y="95" width="49" height="35" fill="#ffe6cc" stroke="none" pointer-events="none"/><path d="M 361 95 M 410 95 M 410 130 M 361 130" fill="none" stroke="#d79b00" stroke-linecap="square" stroke-miterlimit="10" pointer-events="none"/><g fill="rgb(0, 0, 0)" font-family="Helvetica" pointer-events="none" clip-path="url(#mx-clip-361-95-49-35-0)" text-anchor="middle" font-size="16px"><text x="385" y="119">104</text></g><path d="M 290 130 M 410 130 M 410 165 M 290 165" fill="none" stroke="rgb(0, 0, 0)" stroke-linecap="square" stroke-miterlimit="10" pointer-events="none"/><rect x="290" y="130" width="71" height="35" fill="#ffffff" stroke="none" pointer-events="none"/><path d="M 290 130 M 361 130 M 361 165 M 290 165" fill="none" stroke="rgb(0, 0, 0)" stroke-linecap="square" stroke-miterlimit="10" pointer-events="none"/><rect x="361" y="130" width="49" height="35" fill="#ffffff" stroke="none" pointer-events="none"/><path d="M 361 130 M 410 130 M 410 165 M 361 165" fill="none" stroke="rgb(0, 0, 0)" stroke-linecap="square" stroke-miterlimit="10" pointer-events="none"/><path d="M 290 165 M 410 165 M 410 200 M 290 200" fill="none" stroke="rgb(0, 0, 0)" stroke-linecap="square" stroke-miterlimit="10" pointer-events="none"/><rect x="290" y="165" width="71" height="35" fill="#ffffff" stroke="none" pointer-events="none"/><path d="M 290 165 M 361 165 M 361 200 M 290 200" fill="none" stroke="rgb(0, 0, 0)" stroke-linecap="square" stroke-miterlimit="10" pointer-events="none"/><rect x="361" y="165" width="49" height="35" fill="#ffffff" stroke="none" pointer-events="none"/><path d="M 361 165 M 410 165 M 410 200 M 361 200" fill="none" stroke="rgb(0, 0, 0)" stroke-linecap="square" stroke-miterlimit="10" pointer-events="none"/><path d="M 290 200 M 410 200 M 410 235 M 290 235" fill="none" stroke="rgb(0, 0, 0)" stroke-linecap="square" stroke-miterlimit="10" pointer-events="none"/><rect x="290" y="200" width="71" height="35" fill="#ffffff" stroke="none" pointer-events="none"/><path d="M 290 200 M 361 200 M 361 235 M 290 235" fill="none" stroke="rgb(0, 0, 0)" stroke-linecap="square" stroke-miterlimit="10" pointer-events="none"/><rect x="361" y="200" width="49" height="35" fill="#ffffff" stroke="none" pointer-events="none"/><path d="M 361 200 M 410 200 M 410 235 M 361 235" fill="none" stroke="rgb(0, 0, 0)" stroke-linecap="square" stroke-miterlimit="10" pointer-events="none"/><path d="M 290 235 M 410 235 M 410 270 M 290 270" fill="none" stroke="rgb(0, 0, 0)" stroke-linecap="square" stroke-miterlimit="10" pointer-events="none"/><rect x="290" y="235" width="71" height="35" fill="#ffe6cc" stroke="none" pointer-events="none"/><path d="M 290 235 M 361 235 M 361 270 M 290 270" fill="none" stroke="#d79b00" stroke-linecap="square" stroke-miterlimit="10" pointer-events="none"/><g fill="rgb(0, 0, 0)" font-family="Helvetica" pointer-events="none" clip-path="url(#mx-clip-290-235-71-35-0)" text-anchor="middle" font-size="16px"><text x="325" y="259">Alice</text></g><rect x="361" y="235" width="49" height="35" fill="#ffe6cc" stroke="none" pointer-events="none"/><path d="M 361 235 M 410 235 M 410 270 M 361 270" fill="none" stroke="#d79b00" stroke-linecap="square" stroke-miterlimit="10" pointer-events="none"/><g fill="rgb(0, 0, 0)" font-family="Helvetica" pointer-events="none" clip-path="url(#mx-clip-361-235-49-35-0)" text-anchor="middle" font-size="16px"><text x="385" y="259">101</text></g><path d="M 290 270 M 410 270 M 410 305 M 290 305" fill="none" stroke="rgb(0, 0, 0)" stroke-linecap="square" stroke-miterlimit="10" pointer-events="none"/><rect x="290" y="270" width="71" height="35" fill="#ffe6cc" stroke="none" pointer-events="none"/><path d="M 290 270 M 361 270 M 361 305 M 290 305" fill="none" stroke="#d79b00" stroke-linecap="square" stroke-miterlimit="10" pointer-events="none"/><g fill="rgb(0, 0, 0)" font-family="Helvetica" pointer-events="none" clip-path="url(#mx-clip-290-270-71-35-0)" text-anchor="middle" font-size="16px"><text x="325" y="294">Bell</text></g><rect x="361" y="270" width="49" height="35" fill="#ffe6cc" stroke="none" pointer-events="none"/><path d="M 361 270 M 410 270 M 410 305 M 361 305" fill="none" stroke="#d79b00" stroke-linecap="square" stroke-miterlimit="10" pointer-events="none"/><g fill="rgb(0, 0, 0)" font-family="Helvetica" pointer-events="none" clip-path="url(#mx-clip-361-270-49-35-0)" text-anchor="middle" font-size="16px"><text x="385" y="294">102</text></g><path d="M 260 25 M 290 25 M 290 60 M 260 60" fill="none" stroke="rgb(0, 0, 0)" stroke-width="2" stroke-linecap="square" stroke-miterlimit="10" pointer-events="none"/><path d="M 260 25 M 290 25 M 290 60 M 260 60" fill="none" stroke="rgb(0, 0, 0)" stroke-width="2" stroke-linecap="square" stroke-miterlimit="10" pointer-events="none"/><g fill="#4D4D4D" font-family="Helvetica" pointer-events="none" clip-path="url(#mx-clip-260-25-30-35-0)" text-anchor="middle" font-size="16px"><text x="274.5" y="49">0</text></g><path d="M 260 60 M 290 60 M 290 95 M 260 95" fill="none" stroke="rgb(0, 0, 0)" stroke-width="2" stroke-linecap="square" stroke-miterlimit="10" pointer-events="none"/><path d="M 260 60 M 290 60 M 290 95 M 260 95" fill="none" stroke="rgb(0, 0, 0)" stroke-width="2" stroke-linecap="square" stroke-miterlimit="10" pointer-events="none"/><g fill="#4D4D4D" font-family="Helvetica" pointer-events="none" clip-path="url(#mx-clip-260-60-30-35-0)" text-anchor="middle" font-size="16px"><text x="274.5" y="84">1</text></g><path d="M 260 95 M 290 95 M 290 130 M 260 130" fill="none" stroke="rgb(0, 0, 0)" stroke-width="2" stroke-linecap="square" stroke-miterlimit="10" pointer-events="none"/><path d="M 260 95 M 290 95 M 290 130 M 260 130" fill="none" stroke="rgb(0, 0, 0)" stroke-width="2" stroke-linecap="square" stroke-miterlimit="10" pointer-events="none"/><g fill="#4D4D4D" font-family="Helvetica" pointer-events="none" clip-path="url(#mx-clip-260-95-30-35-0)" text-anchor="middle" font-size="16px"><text x="274.5" y="119">2</text></g><path d="M 260 130 M 290 130 M 290 165 M 260 165" fill="none" stroke="rgb(0, 0, 0)" stroke-width="2" stroke-linecap="square" stroke-miterlimit="10" pointer-events="none"/><path d="M 260 130 M 290 130 M 290 165 M 260 165" fill="none" stroke="rgb(0, 0, 0)" stroke-width="2" stroke-linecap="square" stroke-miterlimit="10" pointer-events="none"/><g fill="#4D4D4D" font-family="Helvetica" pointer-events="none" clip-path="url(#mx-clip-260-130-30-35-0)" text-anchor="middle" font-size="16px"><text x="274.5" y="154">3</text></g><path d="M 260 165 M 290 165 M 290 200 M 260 200" fill="none" stroke="rgb(0, 0, 0)" stroke-width="2" stroke-linecap="square" stroke-miterlimit="10" pointer-events="none"/><path d="M 260 165 M 290 165 M 290 200 M 260 200" fill="none" stroke="rgb(0, 0, 0)" stroke-width="2" stroke-linecap="square" stroke-miterlimit="10" pointer-events="none"/><g fill="#4D4D4D" font-family="Helvetica" pointer-events="none" clip-path="url(#mx-clip-260-165-30-35-0)" text-anchor="middle" font-size="16px"><text x="274.5" y="189">4</text></g><path d="M 260 200 M 290 200 M 290 235 M 260 235" fill="none" stroke="rgb(0, 0, 0)" stroke-width="2" stroke-linecap="square" stroke-miterlimit="10" pointer-events="none"/><path d="M 260 200 M 290 200 M 290 235 M 260 235" fill="none" stroke="rgb(0, 0, 0)" stroke-width="2" stroke-linecap="square" stroke-miterlimit="10" pointer-events="none"/><g fill="#4D4D4D" font-family="Helvetica" pointer-events="none" clip-path="url(#mx-clip-260-200-30-35-0)" text-anchor="middle" font-size="16px"><text x="274.5" y="224">5</text></g><path d="M 260 235 M 290 235 M 290 270 M 260 270" fill="none" stroke="rgb(0, 0, 0)" stroke-width="2" stroke-linecap="square" stroke-miterlimit="10" pointer-events="none"/><path d="M 260 235 M 290 235 M 290 270 M 260 270" fill="none" stroke="rgb(0, 0, 0)" stroke-width="2" stroke-linecap="square" stroke-miterlimit="10" pointer-events="none"/><g fill="#4D4D4D" font-family="Helvetica" pointer-events="none" clip-path="url(#mx-clip-260-235-30-35-0)" text-anchor="middle" font-size="16px"><text x="274.5" y="259">6</text></g><path d="M 260 270 M 290 270 M 290 305 M 260 305" fill="none" stroke="rgb(0, 0, 0)" stroke-width="2" stroke-linecap="square" stroke-miterlimit="10" pointer-events="none"/><path d="M 260 270 M 290 270 M 290 305 M 260 305" fill="none" stroke="rgb(0, 0, 0)" stroke-width="2" stroke-linecap="square" stroke-miterlimit="10" pointer-events="none"/><g fill="#4D4D4D" font-family="Helvetica" pointer-events="none" clip-path="url(#mx-clip-260-270-30-35-0)" text-anchor="middle" font-size="16px"><text x="274.5" y="294">7</text></g><rect x="0" y="55" width="70" height="30" fill="#ffe6cc" stroke="#d79b00" pointer-events="none"/><g fill="rgb(0, 0, 0)" font-family="Helvetica" pointer-events="none" text-anchor="middle" font-size="16px"><text x="34.5" y="76.5">Alice</text></g><rect x="0" y="115" width="70" height="30" fill="#ffe6cc" stroke="#d79b00" pointer-events="none"/><g fill="rgb(0, 0, 0)" font-family="Helvetica" pointer-events="none" text-anchor="middle" font-size="16px"><text x="34.5" y="136.5">Bell</text></g><rect x="0" y="175" width="70" height="30" fill="#ffe6cc" stroke="#d79b00" pointer-events="none"/><g fill="rgb(0, 0, 0)" font-family="Helvetica" pointer-events="none" text-anchor="middle" font-size="16px"><text x="34.5" y="196.5">Dave</text></g><rect x="0" y="235" width="70" height="30" fill="#ffe6cc" stroke="#d79b00" pointer-events="none"/><g fill="rgb(0, 0, 0)" font-family="Helvetica" pointer-events="none" text-anchor="middle" font-size="16px"><text x="34.5" y="256.5">Evin</text></g><path d="M 70 71.84 Q 130 75 170 164 Q 210 253 249.76 252.69" fill="none" stroke="#666666" stroke-width="2" stroke-miterlimit="10" stroke-dasharray="2 2" pointer-events="none"/><path d="M 257.76 252.63 L 249.8 256.69 L 249.73 248.69 Z" fill="#666666" stroke="#666666" stroke-width="2" stroke-miterlimit="10" pointer-events="none"/><path d="M 70 131.84 Q 130 135 170 211.5 Q 210 288 249.76 287.69" fill="none" stroke="#666666" stroke-width="2" stroke-miterlimit="10" stroke-dasharray="2 2" pointer-events="none"/><path d="M 257.76 287.63 L 249.8 291.69 L 249.73 283.69 Z" fill="#666666" stroke="#666666" stroke-width="2" stroke-miterlimit="10" pointer-events="none"/><path d="M 70 191.84 Q 130 195 170 119 Q 210 43 249.76 42.69" fill="none" stroke="#666666" stroke-width="2" stroke-miterlimit="10" stroke-dasharray="2 2" pointer-events="none"/><path d="M 257.76 42.63 L 249.8 46.69 L 249.73 38.69 Z" fill="#666666" stroke="#666666" stroke-width="2" stroke-miterlimit="10" pointer-events="none"/><path d="M 70 251.84 Q 130 255 170 184 Q 210 113 249.76 112.69" fill="none" stroke="#666666" stroke-width="2" stroke-miterlimit="10" stroke-dasharray="2 2" pointer-events="none"/><path d="M 257.76 112.63 L 249.8 116.69 L 249.73 108.69 Z" fill="#666666" stroke="#666666" stroke-width="2" stroke-miterlimit="10" pointer-events="none"/><rect x="110" y="140" width="100" height="50" fill-opacity="0.9" fill="#f5f5f5" stroke="#666666" stroke-opacity="0.9" pointer-events="none"/><path d="M 120 140 L 120 190 M 200 140 L 200 190" fill="none" stroke="#666666" stroke-opacity="0.9" stroke-miterlimit="10" pointer-events="none"/><g fill="#333333" font-family="Helvetica" pointer-events="none" text-anchor="middle" font-size="16px"><text x="159.5" y="162">Hash</text><text x="159.5" y="181">Function</text></g><path d="M 290 0 M 410 0 M 410 20 M 290 20" fill="none" stroke="rgb(0, 0, 0)" stroke-linecap="square" stroke-miterlimit="10" pointer-events="none"/><path d="M 290 0 M 361 0 M 361 20 M 290 20" fill="none" stroke="rgb(0, 0, 0)" stroke-linecap="square" stroke-miterlimit="10" pointer-events="none"/><g fill="rgb(0, 0, 0)" font-family="Helvetica" pointer-events="none" clip-path="url(#mx-clip-290-0-71-20-0)" text-anchor="middle" font-size="16px"><text x="325" y="16.5">Key</text></g><path d="M 361 0 M 410 0 M 410 20 M 361 20" fill="none" stroke="rgb(0, 0, 0)" stroke-linecap="square" stroke-miterlimit="10" pointer-events="none"/><g fill="rgb(0, 0, 0)" font-family="Helvetica" pointer-events="none" clip-path="url(#mx-clip-361-0-49-20-0)" text-anchor="middle" font-size="16px"><text x="385" y="16.5">Val</text></g></g></svg>